<svg width="9" height="8" viewBox="0 0 9 8" fill="none" xmlns="http://www.w3.org/2000/svg">
<path d="M6.97004 0.969986C7.1109 0.835875 7.29836 0.761733 7.49285 0.763205C7.68735 0.764677 7.87366 0.841647 8.01248 0.977874C8.1513 1.1141 8.23178 1.29893 8.23692 1.49336C8.24206 1.68779 8.17146 1.87661 8.04004 2.01999L4.05004 7.00999C3.98143 7.08389 3.89862 7.14319 3.80657 7.18435C3.71452 7.22552 3.61511 7.2477 3.51429 7.24956C3.41347 7.25143 3.31331 7.23295 3.21979 7.19522C3.12628 7.15749 3.04133 7.10129 2.97004 7.02999L0.324036 4.38399C0.250349 4.31532 0.191247 4.23252 0.150255 4.14052C0.109263 4.04853 0.0872207 3.94921 0.0854439 3.84851C0.0836671 3.74781 0.102192 3.64778 0.139913 3.55439C0.177634 3.461 0.233779 3.37617 0.304997 3.30495C0.376216 3.23373 0.46105 3.17758 0.554438 3.13986C0.647826 3.10214 0.747855 3.08362 0.848558 3.08539C0.949261 3.08717 1.04857 3.10921 1.14057 3.15021C1.23257 3.1912 1.31537 3.2503 1.38404 3.32399L3.47804 5.41699L6.95104 0.991987C6.95729 0.984288 6.96397 0.976943 6.97104 0.969986H6.97004Z" fill="#64758B"/>
</svg>
